<?xml version="1.0" encoding="iso-8859-1"?>
<!-- Generator: Adobe Illustrator 24.3.0, SVG Export Plug-In . SVG Version: 6.00 Build 0)  -->
<svg version="1.1" xmlns="http://www.w3.org/2000/svg" xmlns:xlink="http://www.w3.org/1999/xlink" x="0px" y="0px"
	 viewBox="0 0 512 512" style="enable-background:new 0 0 512 512;" xml:space="preserve">
<g id="_x37__x2C__down_chevron_x2C__arrow_x2C__sign_x2C__side" fill="#FFFFFF">
	<g>
		<path d="M425.707,86.297C380.377,40.965,320.107,16,256,16S131.624,40.965,86.293,86.297C40.964,131.627,16,191.895,16,256
			c0,64.107,24.964,124.378,70.293,169.707C131.623,471.036,191.892,496,256,496s124.377-24.964,169.707-70.293
			C471.036,380.378,496,320.107,496,256C496,191.895,471.036,131.627,425.707,86.297z M256,486C129.178,486,26,382.822,26,256
			S129.178,26,256,26s230,103.178,230,230S382.822,486,256,486z"/>
		<path d="M344.384,249.965L256,338.358l-88.384-88.394c-1.951-1.952-5.118-1.951-7.071-0.001c-1.953,1.953-1.953,5.119-0.001,7.071
			l91.92,91.93c0.938,0.938,2.21,1.465,3.536,1.465c1.326,0,2.598-0.526,3.536-1.465l91.92-91.93c1.953-1.952,1.953-5.118,0-7.071
			C349.503,248.013,346.337,248.012,344.384,249.965z"/>
		<path d="M344.384,163.045L256,251.429l-88.384-88.384c-1.953-1.953-5.118-1.953-7.071,0c-1.953,1.952-1.953,5.118,0,7.07
			l91.92,91.92c0.977,0.977,2.256,1.465,3.536,1.465c1.28,0,2.559-0.488,3.536-1.465l91.92-91.92c1.953-1.952,1.953-5.118,0-7.07
			C349.503,161.092,346.338,161.092,344.384,163.045z"/>
	</g>
</g>
<g id="Layer_1">
</g>
</svg>
